<svg id="Layer_1" xmlns="http://www.w3.org/2000/svg" viewBox="0 0 800 500"><style>.st0{fill:#FFFFFF;stroke:#414141;stroke-width:4;stroke-linejoin:round;stroke-miterlimit:10;} .st1{fill:none;stroke:#414141;stroke-width:4;stroke-miterlimit:10;} .st2{fill:#B5E1F8;stroke:#414141;stroke-width:4;stroke-miterlimit:10;} .st3{fill:#FFFFFF;stroke:#414141;stroke-width:4;stroke-miterlimit:10;} .st4{fill:none;stroke:#414141;stroke-width:4;stroke-linecap:round;stroke-linejoin:round;stroke-miterlimit:10;} .st5{fill:#414141;} .st6{fill:#59ADDF;stroke:#414141;stroke-width:4;stroke-linejoin:round;stroke-miterlimit:10;}</style><path class="st0" d="M487.3,121.5H582v187h-94.7V121.5z"/><path class="st1" d="M534.6,165v100.1"/><circle class="st2" cx="534.6" cy="265.1" r="18"/><circle class="st3" cx="534.6" cy="215" r="18"/><circle class="st3" cx="534.6" cy="165" r="18"/><path class="st4" d="M441.4,225.2h-89.2 M432.4,214.4l10.9,10.8l-10.9,10.9"/><path class="st5" d="M504,352.2c0-3.6,2.6-5.5,5.3-5.5c2.4,0,4.1,1.3,4.7,3.4l-1.4,0.5c-0.4-1.6-1.6-2.5-3.3-2.5 c-1.9,0-3.8,1.4-3.8,4.2c0,2.8,1.8,4.2,3.8,4.2c1.8,0,3-1.1,3.4-2.5l1.3,0.5c-0.6,2-2.2,3.4-4.7,3.4 C506.5,357.8,504,355.8,504,352.2z"/><path class="st5" d="M523,353.9c0,2.2-1.5,3.8-3.7,3.8s-3.7-1.6-3.7-3.8c0-2.2,1.5-3.8,3.7-3.8S523,351.7,523,353.9z M521.5,353.9 c0-1.7-1-2.6-2.2-2.6s-2.2,0.9-2.2,2.6c0,1.7,1,2.6,2.2,2.6S521.5,355.6,521.5,353.9z"/><path class="st5" d="M525.5,357.5v-7.2h1.3v1c0.5-0.8,1.3-1.2,2.2-1.2c0.9,0,1.8,0.4,2.2,1.4c0.6-1,1.5-1.4,2.4-1.4 c1.3,0,2.5,0.9,2.5,2.7v4.7h-1.4V353c0-0.9-0.5-1.6-1.5-1.6c-1,0-1.7,0.8-1.7,1.8v4.4h-1.4V353c0-0.9-0.5-1.6-1.5-1.6 c-1,0-1.7,0.8-1.7,1.8v4.3H525.5z"/><path class="st5" d="M539.1,357.5v-7.2h1.3v1c0.5-0.8,1.3-1.2,2.2-1.2c0.9,0,1.8,0.4,2.2,1.4c0.6-1,1.5-1.4,2.4-1.4 c1.3,0,2.5,0.9,2.5,2.7v4.7h-1.4V353c0-0.9-0.5-1.6-1.5-1.6c-1,0-1.7,0.8-1.7,1.8v4.4h-1.4V353c0-0.9-0.5-1.6-1.5-1.6 c-1,0-1.7,0.8-1.7,1.8v4.3H539.1z"/><path class="st5" d="M553.4,346.6c0.6,0,1,0.5,1,1c0,0.6-0.5,1-1,1c-0.6,0-1-0.5-1-1C552.4,347,552.9,346.6,553.4,346.6z M552.7,357.5v-7.2h1.4v7.2H552.7z"/><path class="st5" d="M559.2,350.3h1.6v1.3h-1.6v3.8c0,0.7,0.3,1,1,1c0.2,0,0.4,0,0.6-0.1v1.2c-0.1,0-0.5,0.1-1,0.1 c-1.2,0-2-0.8-2-2.1v-4h-1.4v-1.3h0.4c0.8,0,1.1-0.5,1.1-1.1V348h1.3V350.3z"/><path class="st5" d="M516.1,375.5v-4.7h-5.4v4.7h-1.5v-10.6h1.5v4.5h5.4v-4.5h1.5v10.6H516.1z"/><path class="st5" d="M521.5,364.6c0.6,0,1,0.5,1,1c0,0.6-0.5,1-1,1c-0.6,0-1-0.5-1-1C520.5,365,521,364.6,521.5,364.6z M520.9,375.5v-7.2h1.4v7.2H520.9z"/><path class="st5" d="M526,373.2c0.1,0.8,0.7,1.4,1.7,1.4c0.8,0,1.2-0.5,1.2-1c0-0.5-0.3-0.8-0.9-0.9l-1.2-0.3 c-1.1-0.2-1.8-1-1.8-2c0-1.2,1.2-2.3,2.6-2.3c2,0,2.6,1.3,2.7,1.9l-1.2,0.5c-0.1-0.4-0.4-1.2-1.5-1.2c-0.7,0-1.2,0.5-1.2,1 c0,0.4,0.3,0.8,0.8,0.9l1.2,0.3c1.3,0.3,2,1.1,2,2.1c0,1-0.9,2.2-2.6,2.2c-2,0-2.8-1.3-2.9-2.1L526,373.2z"/><path class="st5" d="M534.8,368.3h1.6v1.3h-1.6v3.8c0,0.7,0.3,1,1,1c0.2,0,0.4,0,0.6-0.1v1.2c-0.1,0-0.5,0.1-1,0.1 c-1.2,0-2-0.8-2-2.1v-4H532v-1.3h0.4c0.8,0,1.1-0.5,1.1-1.1V366h1.3V368.3z"/><path class="st5" d="M545.7,371.9c0,2.2-1.5,3.8-3.7,3.8s-3.7-1.6-3.7-3.8c0-2.2,1.5-3.8,3.7-3.8S545.7,369.7,545.7,371.9z M544.3,371.9c0-1.7-1-2.6-2.2-2.6s-2.2,0.9-2.2,2.6c0,1.7,1,2.6,2.2,2.6S544.3,373.6,544.3,371.9z"/><path class="st5" d="M552.3,369.7c-0.2,0-0.4,0-0.6,0c-1.2,0-2,0.6-2,2.2v3.6h-1.4v-7.2h1.4v1.3c0.5-1.1,1.4-1.4,2.2-1.4 c0.2,0,0.4,0,0.5,0V369.7z"/><path class="st5" d="M555,378.5l1.8-3.8l-3.1-6.4h1.6l2.2,5l2.2-5h1.5l-4.7,10.2H555z"/><path class="st5" d="M242.1,349.2c-0.1-0.8-0.8-1.8-2.2-1.8c-1.2,0-2.1,0.8-2.1,1.8c0,0.8,0.5,1.3,1.4,1.5l1.6,0.3 c1.8,0.4,2.8,1.5,2.8,3c0,1.6-1.4,3.1-3.7,3.1c-2.6,0-3.8-1.6-4-3.2l1.4-0.5c0.1,1.2,0.9,2.3,2.6,2.3c1.5,0,2.2-0.8,2.2-1.7 c0-0.8-0.5-1.4-1.6-1.7l-1.5-0.3c-1.5-0.3-2.6-1.3-2.6-2.9c0-1.7,1.5-3.2,3.5-3.2c2.4,0,3.4,1.5,3.6,2.6L242.1,349.2z"/><path class="st5" d="M247.9,349.7h1.6v1.3h-1.6v3.8c0,0.7,0.3,1,1,1c0.2,0,0.4,0,0.6-0.1v1.2c-0.1,0-0.5,0.1-1,0.1 c-1.2,0-2-0.8-2-2.1v-4h-1.4v-1.3h0.4c0.8,0,1.1-0.5,1.1-1.1v-1.2h1.3V349.7z"/><path class="st5" d="M253.8,352.8l2-0.3c0.4-0.1,0.6-0.3,0.6-0.5c0-0.7-0.5-1.3-1.6-1.3c-1,0-1.5,0.6-1.6,1.5l-1.3-0.3 c0.1-1.4,1.4-2.3,3-2.3c2.2,0,3,1.2,3,2.6v3.6c0,0.6,0.1,1,0.1,1.2h-1.4c0-0.2-0.1-0.5-0.1-1c-0.3,0.5-1,1.2-2.3,1.2 c-1.5,0-2.4-1-2.4-2.2C251.6,353.7,252.6,353,253.8,352.8z M256.3,353.8v-0.3l-2.2,0.3c-0.6,0.1-1.1,0.4-1.1,1.1 c0,0.5,0.5,1,1.2,1C255.4,356,256.3,355.4,256.3,353.8z"/><path class="st5" d="M261.5,357c0.1,1,0.9,1.8,2,1.8c1.5,0,2.2-0.8,2.2-2.3v-1c-0.3,0.7-1.1,1.2-2.2,1.2c-1.9,0-3.3-1.5-3.3-3.5 c0-2,1.3-3.5,3.3-3.5c1.1,0,1.9,0.4,2.2,1.1v-1h1.4v6.7c0,1.8-0.9,3.6-3.6,3.6c-1.8,0-3.2-1.1-3.3-2.7L261.5,357z M265.7,353.1 c0-1.4-0.8-2.3-2.1-2.3c-1.2,0-2.1,0.9-2.1,2.3c0,1.4,0.8,2.3,2.1,2.3C264.9,355.4,265.7,354.5,265.7,353.1z"/><path class="st5" d="M270.8,346c0.6,0,1,0.5,1,1c0,0.6-0.5,1-1,1c-0.6,0-1-0.5-1-1C269.8,346.4,270.2,346,270.8,346z M270.1,356.9 v-7.2h1.4v7.2H270.1z"/><path class="st5" d="M276,356.9h-1.4v-7.2h1.4v1c0.5-0.9,1.4-1.2,2.2-1.2c1.7,0,2.6,1.2,2.6,2.8v4.6h-1.4v-4.3 c0-1-0.4-1.8-1.7-1.8c-1.1,0-1.7,0.9-1.7,2V356.9z"/><path class="st5" d="M284.6,357c0.1,1,0.9,1.8,2,1.8c1.5,0,2.2-0.8,2.2-2.3v-1c-0.3,0.7-1.1,1.2-2.2,1.2c-1.9,0-3.3-1.5-3.3-3.5 c0-2,1.3-3.5,3.3-3.5c1.1,0,1.9,0.4,2.2,1.1v-1h1.4v6.7c0,1.8-0.9,3.6-3.6,3.6c-1.8,0-3.2-1.1-3.3-2.7L284.6,357z M288.9,353.1 c0-1.4-0.8-2.3-2.1-2.3c-1.2,0-2.1,0.9-2.1,2.3c0,1.4,0.8,2.3,2.1,2.3C288,355.4,288.9,354.5,288.9,353.1z"/><path class="st5" d="M256.1,372h-4.7l-1.1,3h-1.6l4.2-10.6h1.7l4.2,10.6h-1.6L256.1,372z M251.9,370.6h3.7l-1.8-4.8L251.9,370.6z"/><path class="st5" d="M264.8,369.1c-0.2,0-0.4,0-0.6,0c-1.2,0-2,0.6-2,2.2v3.6h-1.4v-7.2h1.4v1.3c0.5-1.1,1.4-1.4,2.2-1.4 c0.2,0,0.4,0,0.5,0V369.1z"/><path class="st5" d="M273.3,372.9c-0.4,1.3-1.6,2.3-3.2,2.3c-1.9,0-3.6-1.4-3.6-3.9c0-2.3,1.6-3.8,3.4-3.8c2.2,0,3.5,1.5,3.5,3.8 c0,0.2,0,0.4,0,0.5h-5.4c0,1.3,1,2.2,2.2,2.2c1.2,0,1.8-0.6,2-1.5L273.3,372.9z M271.9,370.6c0-1-0.7-1.8-2-1.8 c-1.2,0-1.9,0.9-2,1.8H271.9z"/><path class="st5" d="M277.6,370.8l2-0.3c0.4-0.1,0.6-0.3,0.6-0.5c0-0.7-0.5-1.3-1.6-1.3c-1,0-1.5,0.6-1.6,1.5l-1.3-0.3 c0.1-1.4,1.4-2.3,3-2.3c2.2,0,3,1.2,3,2.6v3.6c0,0.6,0.1,1,0.1,1.2h-1.4c0-0.2-0.1-0.5-0.1-1c-0.3,0.5-1,1.2-2.3,1.2 c-1.5,0-2.4-1-2.4-2.2C275.4,371.7,276.4,371,277.6,370.8z M280.1,371.8v-0.3l-2.2,0.3c-0.6,0.1-1.1,0.4-1.1,1.1 c0,0.5,0.5,1,1.2,1C279.2,374,280.1,373.4,280.1,371.8z"/><circle class="st6" cx="263" cy="225.2" r="45"/></svg>