<svg id="Layer_1" xmlns="http://www.w3.org/2000/svg" viewBox="0 0 800 500"><style>.st0{fill:#FFFFFF;stroke:#414141;stroke-width:4;stroke-linejoin:round;stroke-miterlimit:10;} .st1{fill:#A58BC0;stroke:#414141;stroke-width:4;stroke-linecap:round;stroke-linejoin:round;stroke-miterlimit:10;} .st2{fill:#414141;} .st3{fill:none;stroke:#414141;stroke-width:4;stroke-linecap:round;stroke-linejoin:round;stroke-miterlimit:10;} .st4{fill:#59ADDF;stroke:#414141;stroke-width:4;stroke-linejoin:round;stroke-miterlimit:10;}</style><path class="st0" d="M298.3,132.6v35.2h36.3V245h-85.4V132.6L298.3,132.6"/><path class="st1" d="M298.3,132.6l36.3,35.2h-36.3V132.6z"/><path class="st0" d="M271.8,157.8V193h36.3v77.2h-85.4V157.8L271.8,157.8"/><path class="st1" d="M271.8,157.8l36.3,35.2h-36.3V157.8z"/><path class="st0" d="M245.3,183.1v35.1h36.3v77.2h-85.4V183.1L245.3,183.1"/><path class="st1" d="M245.3,183.1l36.3,35.2l-36.3-0.1V183.1z"/><path class="st2" d="M248.2,335.7h1.5l-3,10.6h-1.5l-2.8-8.6l-2.7,8.6h-1.5l-3.1-10.6h1.5l2.3,8.3l2.7-8.3h1.5l2.7,8.4 L248.2,335.7z"/><path class="st2" d="M258.2,342.8c0,2.2-1.5,3.8-3.7,3.8c-2.2,0-3.7-1.6-3.7-3.8c0-2.2,1.5-3.8,3.7-3.8 C256.6,338.9,258.2,340.6,258.2,342.8z M256.7,342.8c0-1.7-1-2.6-2.3-2.6s-2.2,0.9-2.2,2.6c0,1.7,1,2.6,2.2,2.6 S256.7,344.4,256.7,342.8z"/><path class="st2" d="M264.7,340.6c-0.2,0-0.4,0-0.6,0c-1.2,0-2,0.6-2,2.2v3.6h-1.4v-7.2h1.4v1.3c0.5-1.1,1.4-1.4,2.2-1.4 c0.2,0,0.4,0,0.5,0V340.6z"/><path class="st2" d="M270.4,342.2l3.1,4.2h-1.8l-2.4-3.2l-1,1v2.2H267v-10.9h1.4v6.8l3.1-3.2h2L270.4,342.2z"/><path class="st2" d="M276.3,335.4c0.6,0,1,0.5,1,1c0,0.6-0.5,1-1,1c-0.6,0-1-0.5-1-1C275.3,335.9,275.7,335.4,276.3,335.4z M275.6,346.4v-7.2h1.4v7.2H275.6z"/><path class="st2" d="M281.6,346.4h-1.4v-7.2h1.4v1c0.5-0.9,1.4-1.2,2.2-1.2c1.7,0,2.6,1.2,2.6,2.8v4.6h-1.4V342 c0-1-0.4-1.8-1.7-1.8c-1.1,0-1.7,0.9-1.7,2V346.4z"/><path class="st2" d="M290.2,346.5c0.1,1,0.9,1.8,2,1.8c1.5,0,2.2-0.8,2.2-2.3v-1c-0.3,0.7-1.1,1.2-2.2,1.2 c-1.9,0-3.3-1.5-3.3-3.5c0-2,1.3-3.5,3.3-3.5c1.1,0,1.9,0.4,2.2,1.1v-1h1.4v6.7c0,1.8-0.9,3.6-3.6,3.6c-1.8,0-3.2-1.1-3.3-2.7 L290.2,346.5z M294.4,342.5c0-1.4-0.8-2.3-2.1-2.3c-1.2,0-2.1,0.9-2.1,2.3c0,1.4,0.8,2.3,2.1,2.3 C293.6,344.8,294.4,343.9,294.4,342.5z"/><path class="st2" d="M234.5,364.4v-10.6h3.7c2.7,0,5.1,1.8,5.1,5.3c0,3.5-2.4,5.3-5.1,5.3H234.5z M238.2,363.1c2,0,3.6-1.3,3.6-4 c0-2.7-1.6-4-3.6-4H236v8H238.2z"/><path class="st2" d="M246.6,353.4c0.6,0,1,0.5,1,1c0,0.6-0.5,1-1,1c-0.6,0-1-0.5-1-1C245.6,353.9,246.1,353.4,246.6,353.4z M245.9,364.4v-7.2h1.4v7.2H245.9z"/><path class="st2" d="M256.8,362.3c-0.4,1.3-1.6,2.3-3.2,2.3c-1.9,0-3.6-1.4-3.6-3.9c0-2.3,1.6-3.8,3.4-3.8c2.2,0,3.5,1.5,3.5,3.8 c0,0.2,0,0.4,0,0.5h-5.4c0,1.3,1,2.2,2.2,2.2c1.2,0,1.8-0.6,2-1.5L256.8,362.3z M255.3,360c0-1-0.7-1.8-2-1.8 c-1.2,0-1.9,0.9-2,1.8H255.3z"/><path class="st2" d="M260.2,360.8c0,1.7,1,2.5,2.2,2.5c1.3,0,1.8-0.9,2-1.5l1.2,0.5c-0.3,1-1.4,2.2-3.3,2.2 c-2.1,0-3.6-1.6-3.6-3.8c0-2.2,1.6-3.8,3.6-3.8c1.9,0,2.9,1.2,3.2,2.3l-1.3,0.5c-0.2-0.7-0.7-1.5-1.9-1.5 C261.2,358.2,260.2,359.1,260.2,360.8z"/><path class="st2" d="M269.9,357.2h1.6v1.3h-1.6v3.8c0,0.7,0.3,1,1,1c0.2,0,0.4,0,0.6-0.1v1.2c-0.1,0-0.5,0.1-1,0.1 c-1.2,0-2-0.8-2-2.1v-4h-1.4v-1.3h0.4c0.8,0,1.1-0.5,1.1-1.1v-1.2h1.3V357.2z"/><path class="st2" d="M280.8,360.8c0,2.2-1.5,3.8-3.7,3.8s-3.7-1.6-3.7-3.8c0-2.2,1.5-3.8,3.7-3.8S280.8,358.6,280.8,360.8z M279.4,360.8c0-1.7-1-2.6-2.2-2.6s-2.2,0.9-2.2,2.6c0,1.7,1,2.6,2.2,2.6S279.4,362.4,279.4,360.8z"/><path class="st2" d="M287.4,358.6c-0.2,0-0.4,0-0.6,0c-1.2,0-2,0.6-2,2.2v3.6h-1.4v-7.2h1.4v1.3c0.5-1.1,1.4-1.4,2.2-1.4 c0.2,0,0.4,0,0.5,0V358.6z"/><path class="st2" d="M290.1,367.4l1.8-3.8l-3.1-6.4h1.6l2.2,5l2.2-5h1.5l-4.7,10.2H290.1z"/><path class="st3" d="M467.9,214h-89.2 M458.9,203.2l10.9,10.8l-10.9,10.9"/><path class="st2" d="M537.8,338.1c-0.1-0.8-0.8-1.8-2.2-1.8c-1.2,0-2.1,0.8-2.1,1.8c0,0.8,0.5,1.3,1.4,1.5l1.6,0.3 c1.8,0.4,2.8,1.5,2.8,3c0,1.6-1.4,3.1-3.7,3.1c-2.6,0-3.8-1.6-4-3.2l1.4-0.5c0.1,1.2,0.9,2.3,2.6,2.3c1.5,0,2.2-0.8,2.2-1.7 c0-0.8-0.5-1.4-1.6-1.7l-1.5-0.3c-1.5-0.3-2.6-1.3-2.6-2.9c0-1.7,1.5-3.2,3.5-3.2c2.4,0,3.4,1.5,3.6,2.6L537.8,338.1z"/><path class="st2" d="M543.6,338.6h1.6v1.3h-1.6v3.8c0,0.7,0.3,1,1,1c0.2,0,0.4,0,0.6-0.1v1.2c-0.1,0-0.5,0.1-1,0.1 c-1.2,0-2-0.8-2-2.1v-4h-1.4v-1.3h0.4c0.8,0,1.1-0.5,1.1-1.1v-1.2h1.3V338.6z"/><path class="st2" d="M549.5,341.7l2-0.3c0.4-0.1,0.6-0.3,0.6-0.5c0-0.7-0.5-1.3-1.6-1.3c-1,0-1.5,0.6-1.6,1.5l-1.3-0.3 c0.1-1.4,1.4-2.3,3-2.3c2.2,0,3,1.2,3,2.6v3.6c0,0.6,0.1,1,0.1,1.2h-1.4c0-0.2-0.1-0.5-0.1-1c-0.3,0.5-1,1.2-2.3,1.2 c-1.5,0-2.4-1-2.4-2.2C547.3,342.6,548.3,341.9,549.5,341.7z M552,342.7v-0.3l-2.2,0.3c-0.6,0.1-1.1,0.4-1.1,1.1 c0,0.5,0.5,1,1.2,1C551.1,344.9,552,344.3,552,342.7z"/><path class="st2" d="M557.2,345.9c0.1,1,0.9,1.8,2,1.8c1.5,0,2.2-0.8,2.2-2.3v-1c-0.3,0.7-1.1,1.2-2.2,1.2c-1.9,0-3.3-1.5-3.3-3.5 c0-2,1.3-3.5,3.3-3.5c1.1,0,1.9,0.4,2.2,1.1v-1h1.4v6.7c0,1.8-0.9,3.6-3.6,3.6c-1.8,0-3.2-1.1-3.3-2.7L557.2,345.9z M561.4,342 c0-1.4-0.8-2.3-2.1-2.3c-1.2,0-2.1,0.9-2.1,2.3c0,1.4,0.8,2.3,2.1,2.3C560.6,344.3,561.4,343.4,561.4,342z"/><path class="st2" d="M566.5,334.9c0.6,0,1,0.5,1,1c0,0.6-0.5,1-1,1c-0.6,0-1-0.5-1-1C565.5,335.3,565.9,334.9,566.5,334.9z M565.8,345.8v-7.2h1.4v7.2H565.8z"/><path class="st2" d="M571.7,345.8h-1.4v-7.2h1.4v1c0.5-0.9,1.4-1.2,2.2-1.2c1.7,0,2.6,1.2,2.6,2.8v4.6h-1.4v-4.3 c0-1-0.4-1.8-1.7-1.8c-1.1,0-1.7,0.9-1.7,2V345.8z"/><path class="st2" d="M580.4,345.9c0.1,1,0.9,1.8,2,1.8c1.5,0,2.2-0.8,2.2-2.3v-1c-0.3,0.7-1.1,1.2-2.2,1.2c-1.9,0-3.3-1.5-3.3-3.5 c0-2,1.3-3.5,3.3-3.5c1.1,0,1.9,0.4,2.2,1.1v-1h1.4v6.7c0,1.8-0.9,3.6-3.6,3.6c-1.8,0-3.2-1.1-3.3-2.7L580.4,345.9z M584.6,342 c0-1.4-0.8-2.3-2.1-2.3c-1.2,0-2.1,0.9-2.1,2.3c0,1.4,0.8,2.3,2.1,2.3C583.7,344.3,584.6,343.4,584.6,342z"/><path class="st2" d="M551.8,360.9h-4.7l-1.1,3h-1.6l4.2-10.6h1.7l4.2,10.6h-1.6L551.8,360.9z M547.6,359.5h3.7l-1.8-4.8 L547.6,359.5z"/><path class="st2" d="M560.6,358c-0.2,0-0.4,0-0.6,0c-1.2,0-2,0.6-2,2.2v3.6h-1.4v-7.2h1.4v1.3c0.5-1.1,1.4-1.4,2.2-1.4 c0.2,0,0.4,0,0.5,0V358z"/><path class="st2" d="M569,361.8c-0.4,1.3-1.6,2.3-3.2,2.3c-1.9,0-3.6-1.4-3.6-3.9c0-2.3,1.6-3.8,3.4-3.8c2.2,0,3.5,1.5,3.5,3.8 c0,0.2,0,0.4,0,0.5h-5.4c0,1.3,1,2.2,2.2,2.2c1.2,0,1.8-0.6,2-1.5L569,361.8z M567.6,359.5c0-1-0.7-1.8-2-1.8 c-1.2,0-1.9,0.9-2,1.8H567.6z"/><path class="st2" d="M573.4,359.7l2-0.3c0.4-0.1,0.6-0.3,0.6-0.5c0-0.7-0.5-1.3-1.6-1.3c-1,0-1.5,0.6-1.6,1.5l-1.3-0.3 c0.1-1.4,1.4-2.3,3-2.3c2.2,0,3,1.2,3,2.6v3.6c0,0.6,0.1,1,0.1,1.2H576c0-0.2-0.1-0.5-0.1-1c-0.3,0.5-1,1.2-2.3,1.2 c-1.5,0-2.4-1-2.4-2.2C571.2,360.6,572.1,359.9,573.4,359.7z M575.9,360.7v-0.3l-2.2,0.3c-0.6,0.1-1.1,0.4-1.1,1.1 c0,0.5,0.5,1,1.2,1C574.9,362.9,575.9,362.3,575.9,360.7z"/><circle class="st4" cx="558.8" cy="214.1" r="45"/></svg>